<?xml version="1.0" standalone="no"?>
<!DOCTYPE svg PUBLIC "-//W3C//DTD SVG 20010904//EN"
 "http://www.w3.org/TR/2001/REC-SVG-20010904/DTD/svg10.dtd">
<svg version="1.0" xmlns="http://www.w3.org/2000/svg"
 width="300.000000pt" height="300.000000pt" viewBox="0 0 300.000000 300.000000"
 preserveAspectRatio="xMidYMid meet">
<metadata>
Created by potrace 1.10, written by Peter Selinger 2001-2011
</metadata>
<g transform="translate(0.000000,300.000000) scale(0.100000,-0.100000)"
fill="#000000" stroke="none">
<path d="M526 2267 c-21 -16 -24 -60 -6 -82 10 -12 42 -15 171 -15 88 0 159
-2 159 -4 0 -2 74 -277 165 -612 130 -481 169 -613 186 -626 20 -17 60 -18
529 -18 478 0 508 1 523 18 24 27 21 68 -5 87 -20 13 -81 15 -498 15 l-474 -1
-23 83 c-12 46 -22 86 -23 91 0 4 235 7 523 7 l524 0 20 23 c14 16 45 124 109
382 48 198 87 371 87 385 -1 13 -11 32 -23 42 -21 17 -66 18 -749 18 l-726 0
-23 88 c-34 133 -32 132 -251 132 -131 0 -182 -3 -195 -13z m378 -46 c9 -10
25 -49 35 -86 34 -121 -49 -109 784 -115 l722 -5 3 -30 c2 -17 -22 -129 -52
-250 -30 -121 -66 -271 -81 -333 -15 -62 -35 -122 -44 -132 -15 -20 -32 -20
-522 -23 -483 -2 -508 -3 -528 -21 -26 -24 -26 -41 0 -130 34 -115 -10 -106
529 -106 392 0 469 -2 473 -14 3 -8 3 -17 0 -20 -4 -3 -228 -6 -498 -6 -412 0
-494 2 -504 14 -7 8 -50 155 -97 328 -104 385 -147 544 -183 673 -16 55 -34
121 -41 147 -22 83 -32 88 -175 88 -68 0 -136 4 -150 10 -56 21 -12 30 149 30
146 0 165 -2 180 -19z"/>
<path d="M1055 1983 c-30 -8 -55 -34 -55 -57 0 -37 59 -228 76 -247 15 -17 33
-19 140 -19 114 0 125 2 144 22 17 18 19 30 14 72 -27 240 -19 230 -182 233
-64 1 -126 -1 -137 -4z m276 -163 l14 -130 -125 0 -125 0 -29 113 c-16 61 -31
120 -34 130 -4 16 7 17 140 17 l144 0 15 -130z"/>
<path d="M1457 1983 c-46 -8 -60 -41 -53 -125 11 -122 18 -152 39 -175 19 -21
29 -23 122 -23 136 0 135 -2 135 162 0 158 -1 159 -127 163 -48 2 -100 1 -116
-2z m213 -163 l0 -130 -104 0 -104 0 -6 38 c-3 20 -8 66 -11 102 -3 36 -8 77
-11 93 l-6 27 121 0 121 0 0 -130z"/>
<path d="M1810 1983 c-54 -10 -60 -25 -60 -163 0 -162 -2 -160 137 -160 134 0
134 0 153 173 12 113 5 132 -50 147 -35 10 -133 11 -180 3z m193 -135 c-6 -57
-12 -115 -12 -130 l-1 -28 -105 0 -105 0 0 130 0 130 118 0 117 0 -12 -102z"/>
<path d="M2160 1983 c-44 -8 -67 -39 -74 -101 -19 -179 -19 -177 1 -201 18
-22 25 -23 118 -22 134 2 135 4 175 179 25 112 18 135 -47 145 -41 7 -133 7
-173 0z m208 -45 c-3 -7 -18 -66 -34 -130 l-28 -118 -103 0 -103 0 5 38 c7 49
25 204 25 214 0 5 54 8 121 8 93 0 120 -3 117 -12z"/>
<path d="M1504 1613 c-18 -2 -40 -13 -49 -23 -17 -18 -17 -29 -6 -137 16 -154
23 -163 133 -163 113 0 118 6 118 159 0 149 -6 158 -100 164 -36 3 -79 3 -96
0z m166 -163 l0 -130 -84 0 -85 0 -5 45 c-3 25 -8 66 -11 93 -3 26 -8 64 -11
85 l-6 37 101 0 101 0 0 -130z"/>
<path d="M1117 1592 c-10 -10 -17 -26 -17 -35 0 -35 52 -213 69 -237 17 -23
24 -25 119 -28 l101 -3 15 29 c13 25 13 44 2 140 -17 152 -17 152 -161 152
-96 0 -114 -3 -128 -18z m254 -142 l14 -131 -94 3 -94 3 -34 120 c-18 66 -33
123 -33 128 0 4 51 7 113 7 l113 0 15 -130z"/>
<path d="M1767 1592 c-14 -15 -17 -41 -17 -144 0 -156 1 -158 117 -158 106 0
111 6 129 147 17 137 17 126 -6 151 -19 20 -31 22 -114 22 -77 0 -96 -3 -109
-18z m194 -142 l-15 -130 -83 0 -83 0 0 130 0 130 98 0 97 0 -14 -130z"/>
<path d="M2078 1593 c-25 -29 -26 -35 -39 -146 -10 -95 -10 -109 5 -132 15
-23 22 -25 95 -25 65 0 81 3 96 20 14 15 75 219 75 250 0 3 -9 16 -20 28 -18
19 -31 22 -109 22 -71 0 -91 -3 -103 -17z m199 -25 c-3 -7 -18 -66 -34 -130
l-28 -118 -78 0 -77 0 5 38 c7 49 25 204 25 214 0 5 43 8 96 8 72 0 94 -3 91
-12z"/>
<path d="M1259 822 c-25 -23 -33 -38 -36 -78 -5 -43 -2 -54 22 -82 90 -107
256 -9 202 121 -30 70 -130 91 -188 39z m140 -38 c25 -32 27 -62 5 -92 -22
-32 -57 -43 -92 -31 -38 13 -56 48 -48 93 8 42 27 55 78 56 28 0 41 -6 57 -26z"/>
<path d="M2008 827 c-53 -45 -63 -102 -25 -158 60 -90 200 -58 214 48 6 45
-14 93 -49 117 -34 24 -108 21 -140 -7z m129 -39 c34 -32 31 -79 -7 -111 -37
-31 -75 -28 -107 9 -29 31 -29 64 -2 98 27 34 82 36 116 4z"/>
</g>
</svg>
